<html>
<head>
<meta charset="UTF-8">
<meta name="viewport" content="width=device-width, initial-scale=1.0"/>

<style>
.comment
{
    padding-left: 20px;
    margin-top: 4px;
    margin-right: 4px;
    margin-bottom: 4px;
    border: 2px #000 solid;
}
.submission
{
    border: 4px #00f solid;
    padding-left: 20px;
}
.hidden
{
    display: none;
}
</style>
</head>
<body><div class="submission" id="t3_7bzlfl">
    <p class="userinfo">
        <a href="https://www.reddit.com/u/MrWifeSteal007">MrWifeSteal007</a>
        <span class="score"> | 9 points</span>
        <span class="timestamp"> | Nov 10 2017 07:08:53</span>
    </p>
    <strong>[TV][60FPS] Arrow S06E05 720p HDTV x265 [713MB]</strong>
    <p><p><a href="https://mega.nz/#!9uACnK4Y!46XBPUNVG5Ca6ZSuL6d5ljxxtFOphNyC2a05mnDukuk">LINK</a></p>
<p><a href="https://www.reddit.com/r/megalinks/comments/7bygyq/tv_arrow_s06e05_720p_hdtv_x264avs_940_mb/">Source</a></p>
<p><strong>Other 60 FPS uploads</strong></p>
<p>Guardians of The Galaxy 2014 - <a href="https://www.reddit.com/r/megalinks/comments/69w0gl/movie_guardians_of_the_galaxy_2014_1080p_bluray/">Link</a></p>
<p>Batman Begins 2005 - <a href="https://www.reddit.com/r/megalinks/comments/6aim5u/movie_batman_begins_2005_1080p_bluray_x265_663gb/">Link</a></p>
<p>Dark knight Rises 2008 -<a href="https://www.reddit.com/r/megalinks/comments/6ajkuk/movie_the_dark_knight_rises_1080p_bluray_x265_888/">Link</a></p>
<p>The Dark Kight Rises 2012 - <a href="https://www.reddit.com/r/megalinks/comments/6ajkuk/movie_the_dark_knight_rises_1080p_bluray_x265_888/">Link</a></p>
<p><strong>General</strong></p>
<p>Unique ID                                : 235663797183377334753043513875687615210 (0xB14B3245FB7E8AB31E82A896B20D2AEA)
Complete name                            : Arrow.S06E05.720p[60FPS].HDTV.x265.mkv
Format                                   : Matroska
Format version                           : Version 4 / Version 2
File size                                : 713 MiB
Duration                                 : 41 min 52 s
Overall bit rate                         : 2 380 kb/s
Writing application                      : Lavf57.83.100
Writing library                          : Lavf57.83.100
ErrorDetectionType                       : Per level 1</p>
<p><strong>Video</strong></p>
<p>ID                                       : 1
Format                                   : HEVC
Format/Info                              : High Efficiency Video Coding
Format profile                           : Main 10@L5.1@High
Codec ID                                 : V_MPEGH/ISO/HEVC
Duration                                 : 41 min 52 s
Bit rate                                 : 1 948 kb/s
Width                                    : 1 280 pixels
Height                                   : 718 pixels
Display aspect ratio                     : 16:9
Frame rate mode                          : Constant
<strong>Frame rate                               : 59.940 (59940/1000) FPS</strong>
Standard                                 : Component
Color space                              : YUV
Chroma subsampling                       : 4:2:0
Bit depth                                : 8 bits
Bits/(Pixel*Frame)                       : 0.035
Stream size                              : 584 MiB (82%)
Default                                  : Yes
Forced                                   : No
Color range                              : Limited
Matrix coefficients                      : BT.709</p>
<p><strong>Audio</strong></p>
<p>ID                                       : 2
Format                                   : AC-3
Format/Info                              : Audio Coding 3
Codec ID                                 : A_AC3
Duration                                 : 41 min 52 s
Bit rate mode                            : Constant
Bit rate                                 : 384 kb/s
Channel(s)                               : 6 channels
Channel positions                        : Front: L C R, Side: L R, LFE
Sampling rate                            : 48.0 kHz
Frame rate                               : 31.250 FPS (1536 SPF)
Bit depth                                : 16 bits
Compression mode                         : Lossy
Stream size                              : 115 MiB (16%)
Service kind                             : Complete Main
Default                                  : Yes
Forced                                   : No</p></p>
    <p class="toolbar">
        <a href="https://www.reddit.com/r/megalinks/comments/7bzlfl">permalink</a>
    </p>
</div>
<div class="comment" id="t1_dpm1oqm">
    <p class="userinfo">
        <a
        class="toggle_hide_button"
        href="javascript:void(0)"
        onclick="toggle_collapse(this.parentElement.parentElement)">[-]
        </a>
        <a href="https://www.reddit.com/u/DRoyLinker">DRoyLinker</a>
        <span class="score"> | 1 points</span>
        <span class="timestamp"> | Nov 10 2017 07:25:14</span>
    </p>
    <div class="collapsible">
        <p>hey thanks for the upload!</p>
        <p class="toolbar">
            <a href="https://www.reddit.com/r/megalinks/comments/7bzlfl/_/dpm1oqm">permalink</a>
        </p>
        
    </div>
</div>
</body>

<script>
function toggle_collapse(comment_div)
{
    var button = comment_div.getElementsByClassName("toggle_hide_button")[0];
    var collapsible = comment_div.getElementsByClassName("collapsible")[0];
    if (collapsible.classList.contains("hidden"))
    {
        collapsible.classList.remove("hidden");
        button.innerText = "[-]";
    }
    else
    {
        collapsible.classList.add("hidden");
        button.innerText = "[+]";
    }
}
</script>
</html>
